# xmcd CD database file generated by OrangeCD 6.0
#
# Track frame offsets:
#	150
#	16275
#	37247
#	54832
#	72595
#	94847
#	113135
#	129292
#	150085
#	165575
#	187252
#
# Disc length: 2641 seconds
#
# Revision: 3
# Processed by: cddbd v1.5.2PL0 Copyright (c) Steve Scherf et al.
# Submitted via: OrangeCD 6.0
#
DISCID=8b0a4f0b
DTITLE=Mystic Warriors - Mystic Warriors
DYEAR=1900
DGENRE=Blues
TTITLE0=Among Mountains
TTITLE1=The Flight of the Condor
TTITLE2=Negra Guitarrita
TTITLE3=Lunas
TTITLE4=Mystic Warriors
TTITLE5=At the End of the Rainbow
TTITLE6=Source of Illusions
TTITLE7=Shepherdess
TTITLE8=Daybreak
TTITLE9=Nucallajta
TTITLE10=Tarkeada
EXTD=
EXTT0=
EXTT1=
EXTT2=
EXTT3=
EXTT4=
EXTT5=
EXTT6=
EXTT7=
EXTT8=
EXTT9=
EXTT10=
PLAYORDER=
